<svg width="44" height="50" viewBox="0 0 44 50" fill="none" xmlns="http://www.w3.org/2000/svg">
<path d="M9.75069 23.8095H29.2521V28.5714H9.75069V23.8095ZM14.626 42.8571H4.87535V4.7619H21.9391V16.6667H34.1274V24.0476L39.0028 19.2857V14.2857L24.3767 0H4.87535C3.58232 0 2.34226 0.501699 1.42796 1.39473C0.513651 2.28776 0 3.49897 0 4.7619V42.8571C0 44.1201 0.513651 45.3313 1.42796 46.2243C2.34226 47.1173 3.58232 47.619 4.87535 47.619H14.626V42.8571ZM9.75069 38.0952H19.7452L21.9391 35.9524V33.3333H9.75069V38.0952ZM39.4903 26.1905C39.7341 26.1905 40.2216 26.4286 40.4654 26.6667L43.6344 29.7619C44.1219 30.2381 44.1219 31.1905 43.6344 31.6667L41.1967 34.0476L36.0776 29.0476L38.5152 26.6667C38.759 26.4286 39.0028 26.1905 39.4903 26.1905M39.4903 35.4762L24.6205 50H19.5014V45L34.3712 30.4762L39.4903 35.4762V35.4762Z" fill="white"/>
</svg>
