<svg width="100" height="100" viewBox="0 0 100 100" fill="none" xmlns="http://www.w3.org/2000/svg">
<circle cx="50" cy="50" r="50" fill="#00ADB5"/>
<path d="M37.5 39.0625C37.5 38.4469 37.6212 37.8374 37.8568 37.2687C38.0924 36.7 38.4377 36.1832 38.8729 35.7479C39.3082 35.3127 39.825 34.9674 40.3937 34.7318C40.9624 34.4962 41.5719 34.375 42.1875 34.375C42.8031 34.375 43.4126 34.4962 43.9813 34.7318C44.55 34.9674 45.0668 35.3127 45.5021 35.7479C45.9373 36.1832 46.2826 36.7 46.5182 37.2687C46.7538 37.8374 46.875 38.4469 46.875 39.0625C46.875 40.3057 46.3811 41.498 45.5021 42.3771C44.623 43.2561 43.4307 43.75 42.1875 43.75C40.9443 43.75 39.752 43.2561 38.8729 42.3771C37.9939 41.498 37.5 40.3057 37.5 39.0625ZM42.1875 31.25C40.1155 31.25 38.1284 32.0731 36.6632 33.5382C35.1981 35.0034 34.375 36.9905 34.375 39.0625C34.375 41.1345 35.1981 43.1216 36.6632 44.5868C38.1284 46.0519 40.1155 46.875 42.1875 46.875C44.2595 46.875 46.2466 46.0519 47.7118 44.5868C49.1769 43.1216 50 41.1345 50 39.0625C50 36.9905 49.1769 35.0034 47.7118 33.5382C46.2466 32.0731 44.2595 31.25 42.1875 31.25ZM57.8125 40.625C57.8125 39.7962 58.1417 39.0013 58.7278 38.4153C59.3138 37.8292 60.1087 37.5 60.9375 37.5C61.7663 37.5 62.5612 37.8292 63.1472 38.4153C63.7333 39.0013 64.0625 39.7962 64.0625 40.625C64.0625 41.4538 63.7333 42.2487 63.1472 42.8347C62.5612 43.4208 61.7663 43.75 60.9375 43.75C60.1087 43.75 59.3138 43.4208 58.7278 42.8347C58.1417 42.2487 57.8125 41.4538 57.8125 40.625ZM56.0063 44.4688C57.6064 43.9909 59.2676 43.7488 60.9375 43.75C62.6074 43.7488 64.2686 43.9909 65.8688 44.4688C66.5883 43.5455 67.0341 42.4387 67.1554 41.2745C67.2767 40.1103 67.0686 38.9354 66.5549 37.8836C66.0411 36.8318 65.2423 35.9455 64.2495 35.3255C63.2566 34.7055 62.1096 34.3768 60.9391 34.3768C59.7685 34.3768 58.6215 34.7055 57.6287 35.3255C56.6358 35.9455 55.837 36.8318 55.3232 37.8836C54.8095 38.9354 54.6014 40.1103 54.7227 41.2745C54.844 42.4387 55.2898 43.5455 56.0094 44.4688H56.0063ZM34.375 50H47.6781C46.8823 50.964 46.1939 52.0119 45.625 53.125H34.375C33.9606 53.125 33.5632 53.2896 33.2701 53.5826C32.9771 53.8757 32.8125 54.2731 32.8125 54.6875V54.9906L32.825 55.1406C32.946 56.108 33.3093 57.0292 33.8812 57.8188C34.9 59.2219 37.1188 60.9375 42.1875 60.9375C42.7406 60.9375 43.2625 60.9156 43.75 60.8781V60.9375C43.75 61.9813 43.8438 63 44.0219 63.9906C43.4116 64.0392 42.7997 64.0632 42.1875 64.0625C36.3187 64.0625 33.0688 62.0187 31.3531 59.6594C30.4586 58.4242 29.8959 56.9803 29.7187 55.4656C29.7032 55.3233 29.6928 55.1805 29.6875 55.0375V54.6875C29.6875 53.4443 30.1814 52.252 31.0604 51.3729C31.9395 50.4939 33.1318 50 34.375 50ZM75 60.9375C75 64.6671 73.5184 68.244 70.8812 70.8812C68.244 73.5184 64.6671 75 60.9375 75C57.2079 75 53.631 73.5184 50.9938 70.8812C48.3566 68.244 46.875 64.6671 46.875 60.9375C46.875 57.2079 48.3566 53.631 50.9938 50.9938C53.631 48.3566 57.2079 46.875 60.9375 46.875C64.6671 46.875 68.244 48.3566 70.8812 50.9938C73.5184 53.631 75 57.2079 75 60.9375ZM60.9375 53.125C60.5231 53.125 60.1257 53.2896 59.8326 53.5826C59.5396 53.8757 59.375 54.2731 59.375 54.6875V60.9375C59.375 61.3519 59.5396 61.7493 59.8326 62.0424C60.1257 62.3354 60.5231 62.5 60.9375 62.5C61.3519 62.5 61.7493 62.3354 62.0424 62.0424C62.3354 61.7493 62.5 61.3519 62.5 60.9375V54.6875C62.5 54.2731 62.3354 53.8757 62.0424 53.5826C61.7493 53.2896 61.3519 53.125 60.9375 53.125ZM60.9375 69.1406C61.4555 69.1406 61.9523 68.9349 62.3186 68.5686C62.6849 68.2023 62.8906 67.7055 62.8906 67.1875C62.8906 66.6695 62.6849 66.1727 62.3186 65.8064C61.9523 65.4401 61.4555 65.2344 60.9375 65.2344C60.4195 65.2344 59.9227 65.4401 59.5564 65.8064C59.1901 66.1727 58.9844 66.6695 58.9844 67.1875C58.9844 67.7055 59.1901 68.2023 59.5564 68.5686C59.9227 68.9349 60.4195 69.1406 60.9375 69.1406Z" fill="white"/>
</svg>
