<svg width="25" height="25" viewBox="0 0 25 25" fill="none" xmlns="http://www.w3.org/2000/svg">
<path d="M11.2499 6.25H13.7499V15H11.2499V6.25ZM11.2499 16.25H13.7499V18.75H11.2499V16.25Z" fill="white"/>
<path d="M24.6338 6.61625L18.3838 0.366251C18.2679 0.249948 18.1301 0.157713 17.9785 0.0948567C17.8268 0.0320002 17.6642 -0.000236811 17.5 1.30959e-06H7.5C7.33582 -0.000236811 7.17322 0.0320002 7.02154 0.0948567C6.86987 0.157713 6.73213 0.249948 6.61625 0.366251L0.366251 6.61625C0.249948 6.73213 0.157713 6.86987 0.0948567 7.02154C0.0320002 7.17322 -0.000236811 7.33582 1.30959e-06 7.5V17.5C1.30959e-06 17.8325 0.131251 18.15 0.366251 18.3838L6.61625 24.6338C6.73213 24.7501 6.86987 24.8423 7.02154 24.9051C7.17322 24.968 7.33582 25.0002 7.5 25H17.5C17.8325 25 18.15 24.8688 18.3838 24.6338L24.6338 18.3838C24.7501 18.2679 24.8423 18.1301 24.9051 17.9785C24.968 17.8268 25.0002 17.6642 25 17.5V7.5C25.0002 7.33582 24.968 7.17322 24.9051 7.02154C24.8423 6.86987 24.7501 6.73213 24.6338 6.61625ZM22.5 16.9825L16.9825 22.5H8.0175L2.5 16.9825V8.0175L8.0175 2.5H16.9825L22.5 8.0175V16.9825Z" fill="white"/>
</svg>
